<svg viewBox="0 0 64 64" xmlns="http://www.w3.org/2000/svg" xmlns:xlink="http://www.w3.org/1999/xlink" width="64.000000" height="64.000000" fill="none" customFrame="#000000">
	<defs>
		<clipPath id="clipPath_0">
			<rect width="64.000000" height="64.000000" x="0.000000" y="0.000000" fill="rgb(255,255,255)" />
		</clipPath>
	</defs>
	<g id="Group 3">
		<g id="dashicons-cloud" clip-path="url(#clipPath_0)" customFrame="url(#clipPath_0)">
			<rect id="dashicons-cloud" width="64.000000" height="64.000000" x="0.000000" y="0.000000" fill="rgb(237,76,92)" fill-opacity="0" />
			<path id="Vector" d="M47.68 28.8C47.68 27.84 48 26.88 48 25.6C48 18.56 42.24 12.8 35.2 12.8C30.08 12.8 25.92 15.68 23.68 19.84C23.04 19.52 21.76 19.2 20.8 19.2C16.32 19.2 12.8 22.72 12.8 27.2C12.8 27.84 12.8 28.48 13.12 28.8C7.36001 29.76 3.20001 34.24 3.20001 40C3.20001 46.08 8.32001 51.2 14.4 51.2L46.4 51.2C52.48 51.2 57.6 46.08 57.6 40C57.6 34.24 53.44 29.44 47.68 28.8Z" fill="rgb(237,76,92)" fill-rule="nonzero" />
		</g>
	</g>
</svg>
